# xmcd
#
# Track frame offsets:
#	150
#	11645
#	25615
#	39515
#	53763
#	69173
#	82108
#	94098
#	108670
#	123630
#	135335
#	149885
#	164375
#	179192
#	193577
#	207467
#	222857
#	236547
#	246622
#	257737
#	269344
#
# Disc length: 3757 seconds
#
# Revision: 1
# Processed by: cddbd v1.5.2PL0 Copyright (c) Steve Scherf et al.
# Submitted via: audiograbber 1.83.01
#
DISCID=420eab15
DTITLE=Peggy Lee - Legends - Peggy Lee
DYEAR=2012
DGENRE=Blues
TTITLE0=Why Don't You Do Right
TTITLE1=Don't Be Mean To Baby
TTITLE2=Golden Earring
TTITLE3=Bluest Kind Of Blue
TTITLE4=San Souci
TTITLE5=Caramba It's The Samba
TTITLE6=He Needs Me
TTITLE7=Black Coffee
TTITLE8=Everybody Loves Somebody
TTITLE9=I've Got You Under My Skin
TTITLE10=Don't Smoke In Bed
TTITLE11=Baby You Can Count On Me
TTITLE12=A Nightingale Can Sing The Blues
TTITLE13=At The Café Rendezvous
TTITLE14=Johnny Guitar
TTITLE15=Lover
TTITLE16=Manana
TTITLE17=My Heart Belongs To Daddy
TTITLE18=Similau
TTITLE19=You Was Right Baby
TTITLE20=Once In A Lifetime
EXTD=
EXTT0=
EXTT1=
EXTT2=
EXTT3=
EXTT4=
EXTT5=
EXTT6=
EXTT7=
EXTT8=
EXTT9=
EXTT10=
EXTT11=
EXTT12=
EXTT13=
EXTT14=
EXTT15=
EXTT16=
EXTT17=
EXTT18=
EXTT19=
EXTT20=
PLAYORDER=
